<svg width="246" height="246" viewBox="0 0 246 246" fill="none" xmlns="http://www.w3.org/2000/svg">
<rect x="1.5" y="1.5" width="243" height="243" rx="3.5" stroke="white" stroke-width="3"/>
<path d="M122 123V8.5C122 8.22386 122.224 8 122.5 8V8C122.776 8 123 8.22385 123 8.5V123M122 123V238.5C122 238.776 122.224 239 122.5 239V239C122.776 239 123 238.776 123 238.5V123M122 123H122.5H123" stroke="white" stroke-width="1.8"/>
<path d="M123.502 122L238.5 122C238.776 122 239 122.224 239 122.5V122.5C239 122.776 238.776 123 238.5 123L123.502 123M123.502 122L7.50001 122C7.22387 122 7.00001 122.224 7.00001 122.5V122.5C7.00001 122.776 7.22387 123 7.50001 123L123.502 123M123.502 122V122.5V123" stroke="white" stroke-width="1.8"/>
</svg>
